# xmcd CD database file
# Copyright (C) 1993-1997  Ti Kan
#
# Track frame offsets:
#	150
#	16245
#	31638
#	48068
#	58975
#	70213
#	96618
#	113955
#	128635
#	138980
#	153175
#	169380
#	184150
#	198748
#
# Disc length: 2854 seconds
#
# Revision: 17
# Processed by: cddbd v1.4b41PL1 Copyright (c) Steve Scherf et al.
# Submitted via: xmcd 2.1 PL1
#
DISCID=c30b240e
DTITLE=Reidar Larsen - Boogie Bastard
DYEAR=1900
DGENRE=
TTITLE0=Boogie Woman
TTITLE1=Come on if You're coming
TTITLE2=Bring me flowers
TTITLE3=Amo's blues
TTITLE4=Sunnyland
TTITLE5=I forgive you
TTITLE6=Grand Prix
TTITLE7=It was a big thing
TTITLE8=Who's been talking
TTITLE9=Reconsider Baby
TTITLE10=It hurts me too
TTITLE11=Roll'em Pete
TTITLE12=The Big Boat
TTITLE13=Keep your hands off her
EXTD=(C) 1992 sonet   scd 15041\n\nProduced by Reidar Larsen. Recorded 
EXTD=and mixed at\nMajor Studios, Oslo 6th - 18th January 1992.\nEngine
EXTD=ered by Per Sveinson.\n\nRegular bastards:\nReidar Larsen: vocal, g
EXTD=rand piano\nFreddy Lindquist: guitars, spoons on "Grand Prix"\nKje
EXTD=ll A Jensen: bassguitar, percussion on "Keep your hands off her"
EXTD=\nLeif Hemmingsen: drums\n\nOccasional bastards:\nElisabeth Moberg, 
EXTD=Kari Iveland, Rita Eriksen: background vocals\nKristin Skere: acc
EXTD=ordion on "Grand Prix"\nLasse Hafreager: hammond organ on "Bring 
EXTD=me flowers"\n                             and "Reconsider baby"\n\n
EXTD=\n\n\n
EXTT0=
EXTT1=
EXTT2=
EXTT3=
EXTT4=
EXTT5=
EXTT6=
EXTT7=
EXTT8=
EXTT9=
EXTT10=
EXTT11=
EXTT12=
EXTT13=
PLAYORDER=
